<svg width="44" height="44" viewBox="0 0 44 44" fill="none" xmlns="http://www.w3.org/2000/svg">
<foreignObject x="-133.333" y="-133.333" width="310.667" height="310.667"><div xmlns="http://www.w3.org/1999/xhtml" style="backdrop-filter:blur(66.67px);clip-path:url(#bgblur_0_59125_21396_clip_path);height:100%;width:100%"></div></foreignObject><g filter="url(#filter0_i_59125_21396)" data-figma-bg-blur-radius="133.333">
<rect width="44" height="44" rx="22" fill="white" fill-opacity="0.12"/>
<path d="M17.5097 9.99021L16.956 9.36737V9.36737L17.5097 9.99021ZM26.49 9.99021L27.0436 9.36737V9.36737L26.49 9.99021ZM26.2023 9.7345L25.6487 10.3573L26.2023 9.7345ZM17.7973 9.7345L18.351 10.3573L18.351 10.3573L17.7973 9.7345ZM11.4146 34.0591L11.9044 33.3849L11.4146 34.0591ZM9.93972 32.5842L10.6139 32.0944L9.93972 32.5842ZM34.06 32.5842L33.3858 32.0944L34.06 32.5842ZM32.5851 34.0591L32.0953 33.3849L32.5851 34.0591ZM35.3332 16.6455H34.4998V23.3323H35.3332H36.1665V16.6455H35.3332ZM23.3332 35.3323V34.499H20.6665V35.3323V36.1656H23.3332V35.3323ZM8.6665 23.3323H9.49984V16.6455H8.6665H7.83317V23.3323H8.6665ZM26.2023 9.7345L25.6487 10.3573L25.9364 10.6131L26.49 9.99021L27.0436 9.36737L26.756 9.11166L26.2023 9.7345ZM17.5097 9.99021L18.0633 10.6131L18.351 10.3573L17.7973 9.7345L17.2437 9.11166L16.956 9.36737L17.5097 9.99021ZM13.9797 11.3323V12.1656C15.4851 12.1656 16.9382 11.6132 18.0633 10.6131L17.5097 9.99021L16.956 9.36737C16.136 10.0963 15.0769 10.499 13.9797 10.499V11.3323ZM26.49 9.99021L25.9364 10.6131C27.0615 11.6132 28.5145 12.1656 30.0199 12.1656V11.3323V10.499C28.9227 10.499 27.8637 10.0963 27.0436 9.36737L26.49 9.99021ZM26.2023 9.7345L26.756 9.11166C24.0436 6.70063 19.9561 6.70063 17.2437 9.11166L17.7973 9.7345L18.351 10.3573C20.4319 8.50762 23.5678 8.50762 25.6487 10.3573L26.2023 9.7345ZM20.6665 35.3323V34.499C18.1481 34.499 16.3263 34.4978 14.9126 34.3447C13.5145 34.1932 12.6149 33.9011 11.9044 33.3849L11.4146 34.0591L10.9248 34.7333C11.9667 35.4903 13.1932 35.8348 14.7331 36.0016C16.2574 36.1668 18.1852 36.1656 20.6665 36.1656V35.3323ZM8.6665 23.3323H7.83317C7.83317 25.8135 7.83203 27.7414 7.99717 29.2657C8.16401 30.8056 8.50852 32.0321 9.26554 33.074L9.93972 32.5842L10.6139 32.0944C10.0977 31.3839 9.80561 30.4842 9.65414 29.0862C9.50098 27.6725 9.49984 25.8507 9.49984 23.3323H8.6665ZM11.4146 34.0591L11.9044 33.3849C11.4092 33.0251 10.9737 32.5896 10.6139 32.0944L9.93972 32.5842L9.26554 33.074C9.72814 33.7107 10.2881 34.2707 10.9248 34.7333L11.4146 34.0591ZM35.3332 23.3323H34.4998C34.4998 25.8507 34.4987 27.6725 34.3455 29.0862C34.1941 30.4842 33.902 31.3839 33.3858 32.0944L34.06 32.5842L34.7341 33.074C35.4912 32.0321 35.8357 30.8056 36.0025 29.2657C36.1676 27.7414 36.1665 25.8135 36.1665 23.3323H35.3332ZM23.3332 35.3323V36.1656C25.8144 36.1656 27.7423 36.1668 29.2666 36.0016C30.8065 35.8348 32.0329 35.4903 33.0749 34.7333L32.5851 34.0591L32.0953 33.3849C31.3848 33.9011 30.4851 34.1932 29.0871 34.3447C27.6734 34.4978 25.8516 34.499 23.3332 34.499V35.3323ZM34.06 32.5842L33.3858 32.0944C33.026 32.5896 32.5905 33.0251 32.0953 33.3849L32.5851 34.0591L33.0749 34.7333C33.7116 34.2707 34.2715 33.7107 34.7341 33.074L34.06 32.5842ZM35.3332 16.6455H36.1665C36.1665 13.2509 33.4146 10.499 30.0199 10.499V11.3323V12.1656C32.4941 12.1656 34.4998 14.1713 34.4998 16.6455H35.3332ZM8.6665 16.6455H9.49984C9.49984 14.1713 11.5056 12.1656 13.9797 12.1656V11.3323V10.499C10.5851 10.499 7.83317 13.2509 7.83317 16.6455H8.6665ZM16.6665 23.3323H15.8332C15.8332 26.738 18.5941 29.499 21.9998 29.499V28.6656V27.8323C19.5146 27.8323 17.4998 25.8176 17.4998 23.3323H16.6665ZM21.9998 28.6656V29.499C25.4056 29.499 28.1665 26.738 28.1665 23.3323H27.3332H26.4998C26.4998 25.8176 24.4851 27.8323 21.9998 27.8323V28.6656ZM27.3332 23.3323H28.1665C28.1665 19.9265 25.4056 17.1656 21.9998 17.1656V17.999V18.8323C24.4851 18.8323 26.4998 20.847 26.4998 23.3323H27.3332ZM21.9998 17.999V17.1656C18.5941 17.1656 15.8332 19.9265 15.8332 23.3323H16.6665H17.4998C17.4998 20.847 19.5146 18.8323 21.9998 18.8323V17.999Z" fill="white"/>
<path d="M28.6665 16.6673C28.6665 17.4037 29.2635 18.0007 29.9998 18.0007C30.7362 18.0007 31.3332 17.4037 31.3332 16.6673C31.3332 15.9309 30.7362 15.334 29.9998 15.334C29.2635 15.334 28.6665 15.9309 28.6665 16.6673Z" fill="white"/>
</g>
<defs>
<filter id="filter0_i_59125_21396" x="-133.333" y="-133.333" width="310.667" height="310.667" filterUnits="userSpaceOnUse" color-interpolation-filters="sRGB">
<feFlood flood-opacity="0" result="BackgroundImageFix"/>
<feBlend mode="normal" in="SourceGraphic" in2="BackgroundImageFix" result="shape"/>
<feColorMatrix in="SourceAlpha" type="matrix" values="0 0 0 0 0 0 0 0 0 0 0 0 0 0 0 0 0 0 127 0" result="hardAlpha"/>
<feOffset dx="1.66667" dy="-1.66667"/>
<feGaussianBlur stdDeviation="10"/>
<feComposite in2="hardAlpha" operator="arithmetic" k2="-1" k3="1"/>
<feColorMatrix type="matrix" values="0 0 0 0 1 0 0 0 0 1 0 0 0 0 1 0 0 0 0.24 0"/>
<feBlend mode="normal" in2="shape" result="effect1_innerShadow_59125_21396"/>
</filter>
<clipPath id="bgblur_0_59125_21396_clip_path" transform="translate(133.333 133.333)"><rect width="44" height="44" rx="22"/>
</clipPath></defs>
</svg>
